<svg id="b8b7e389-b960-4368-af49-24fe1932430e" data-name="Camada 1" xmlns="http://www.w3.org/2000/svg" xmlns:xlink="http://www.w3.org/1999/xlink" viewBox="0 0 1082.4 1082.4"><defs><style>.a253ee95-699b-45a5-bd0f-09cf2568fbbe{fill:#1d1d1b;}.addef407-f748-4075-810d-8bc0789fc394{fill:url(#b66a97fa-836d-4787-a375-99a3d64cb22c);}.bf18c6c5-33db-46f6-b8b2-2bdd269204a9{fill:#fff;}</style><linearGradient id="b66a97fa-836d-4787-a375-99a3d64cb22c" x1="541.2" y1="1082.4" x2="541.2" gradientUnits="userSpaceOnUse"><stop offset="0" stop-color="#ec6568"/><stop offset="0.79397" stop-color="#ec6568"/></linearGradient></defs><path class="a253ee95-699b-45a5-bd0f-09cf2568fbbe" d="M741.6,642.98091" transform="translate(-98.4 -139.2)"/><rect class="addef407-f748-4075-810d-8bc0789fc394" width="1082.4" height="1082.4" rx="200"/><path class="bf18c6c5-33db-46f6-b8b2-2bdd269204a9" d="M564.843,636.77726c-.11456,85.806-58.89334,155.2727-131.28607,155.15823-173.87-8.43215-173.3884-302.9026.416-310.7312C506.36446,481.319,564.95753,550.97129,564.843,636.77726Z" transform="translate(-98.4 -139.2)"/><path class="bf18c6c5-33db-46f6-b8b2-2bdd269204a9" d="M995.99983,636.77726c-.11452,85.806-58.89335,155.2727-131.28609,155.15823-173.87-8.43215-173.38842-302.9026.416-310.7312C937.52133,481.319,996.11435,550.97129,995.99983,636.77726Z" transform="translate(-98.4 -139.2)"/><path class="bf18c6c5-33db-46f6-b8b2-2bdd269204a9" d="M827.00064,579.86922c-.14758,117.28734-80.34209,212.23259-179.11945,212.06618-237.21535-11.5307-236.635-414.04983.53594-424.7354C747.193,367.36679,827.14822,462.58188,827.00064,579.86922Z" transform="translate(-98.4 -139.2)"/><path class="bf18c6c5-33db-46f6-b8b2-2bdd269204a9" d="M883.69244,636.91761l-467.97033-.79312-.3861,308.68239c125.54249-54.10385,351.74343-40.781,467.97033.79312Z" transform="translate(-98.4 -139.2)"/></svg>