<svg id="b60fbf9c-e48a-4df1-ae3c-975f26e923b2" data-name="Camada 1" xmlns="http://www.w3.org/2000/svg" viewBox="0 0 24 24"><defs><style>.b70a206c-8aae-40b9-b08a-098dbf844911{fill:none;}</style></defs><rect class="b70a206c-8aae-40b9-b08a-098dbf844911" width="24" height="24"/><path fill="#fff" d="M19.00126,15s-2,2.17-2,3.5a2,2,0,0,0,4,0C21.00126,17.17,19.00126,15,19.00126,15Zm-2.44-2.56-8.94-8.94-1.41,1.41,2.38,2.38-5.15,5.15a1.49079,1.49079,0,0,0,0,2.12l5.5,5.5a1.49682,1.49682,0,0,0,2.12,0l5.5-5.5A1.49081,1.49081,0,0,0,16.56126,12.44Zm-11.35,1.06,4.79-4.79,4.79,4.79Z"/></svg>