<svg id="explore_black_24dp" xmlns="http://www.w3.org/2000/svg" width="34" height="34" viewBox="0 0 34 34">
  <path id="Caminho_5" data-name="Caminho 5" d="M0,0H34V34H0Z" fill="none"/>
  <path id="Caminho_6" data-name="Caminho 6" d="M16.167,2A14.167,14.167,0,1,0,30.333,16.167,14.172,14.172,0,0,0,16.167,2Zm0,25.5A11.333,11.333,0,1,1,27.5,16.167,11.348,11.348,0,0,1,16.167,27.5ZM8.375,23.958l10.639-4.944L23.958,8.375,13.319,13.319Zm7.792-9.35a1.558,1.558,0,1,1-1.558,1.558A1.554,1.554,0,0,1,16.167,14.608Z" transform="translate(0.833 0.833)" fill="#fff"/>
</svg>
