<svg id="account_circle_black_24dp" xmlns="http://www.w3.org/2000/svg" width="36" height="36" viewBox="0 0 36 36">
  <path id="Caminho_1" data-name="Caminho 1" d="M0,0H36V36H0Z" fill="none"/>
  <path id="Caminho_2" data-name="Caminho 2" d="M17,2A15,15,0,1,0,32,17,15.005,15.005,0,0,0,17,2Zm-7.4,24.42c.645-1.35,4.575-2.67,7.4-2.67s6.765,1.32,7.4,2.67a11.888,11.888,0,0,1-14.79,0ZM26.54,24.245C24.4,21.635,19.19,20.75,17,20.75s-7.4.885-9.54,3.495a12,12,0,1,1,19.08,0ZM17,8a5.25,5.25,0,1,0,5.25,5.25A5.237,5.237,0,0,0,17,8Zm0,7.5a2.25,2.25,0,1,1,2.25-2.25A2.247,2.247,0,0,1,17,15.5Z" transform="translate(1 1)" fill="#fff"/>
</svg>
